<svg width="40" height="413" viewBox="0 0 40 413" fill="none" xmlns="http://www.w3.org/2000/svg">
<path fill-rule="evenodd" clip-rule="evenodd" d="M21.3194 7.75368L32.0879 12.7469V21.1778L9.38239 31.5955L9.4131 31.6105L9.38239 31.6229L21.4208 37.6058L21.4208 130.647L21.4569 130.629L21.4569 134.973L21.4208 134.955V132.604L16.6976 134.756L9.38239 131.162L9.38239 138.342L16.6976 134.756L21.4208 136.912L21.4208 190.227L27.3539 193.289L40 199.322L32.0158 203.344L32.0879 226.999L14.6838 235.259L14.6838 257.202L24.0943 261.924L24.0435 310.376L16.7029 314.141L27.7746 319.784L24.0435 321.67L24.0863 413H0L0 1.90735e-06H21.3194L21.3194 7.75368ZM16.2983 53.2555V52.1235H9.38239V53.2555H16.2983ZM16.2983 54.9675V53.8388H9.38239V54.9675H16.2983ZM16.2983 62.8765V61.7478H9.38239L9.38239 62.8765H16.2983ZM16.2983 76.4468V73.0566H9.38239L9.38239 76.4468H16.2983ZM24.9903 211.834V210.702H22.6868V211.834H24.9903ZM24.9903 216.167V215.035H18.0757V216.167H24.9903ZM24.9903 224.932V223.801H22.6868V224.932H24.9903ZM20.3779 224.932V223.801H18.0757V224.932H20.3779Z" fill="black"/>
</svg>
