<svg width="1040" height="30" viewBox="0 0 1040 30" fill="none" xmlns="http://www.w3.org/2000/svg">
<path fill-rule="evenodd" clip-rule="evenodd" d="M1020.47 15.9895L1007.9 24.0659H986.671L960.438 7.03679L960.4 7.05982L960.368 7.03679L945.302 16.0656H711.01L711.054 16.0927H700.117L700.161 16.0656H706.081L700.663 12.5232L709.712 7.03679H691.633L700.663 12.5232L695.233 16.0656H560.979L553.268 20.5155L538.076 30L527.947 24.0118L468.38 24.0659L447.581 11.0129H392.325L380.433 18.0707L258.423 18.0326L248.943 12.5272L234.733 20.8309L229.983 18.0326L0 18.0647V0H1040V15.9895H1020.47ZM905.894 12.2237H908.745V7.03679H905.894V12.2237ZM901.583 12.2237H904.425V7.03679H901.583V12.2237ZM881.667 12.2237H884.509V7.03679H881.667V12.2237ZM847.495 12.2237H856.032V7.03679H847.495V12.2237ZM506.567 18.7427H509.418V17.0151H506.567V18.7427ZM495.656 18.7427H498.507V13.5568H495.656V18.7427ZM473.584 18.7427H476.433V17.0151H473.584V18.7427ZM473.584 15.2834H476.433V13.5568H473.584V15.2834Z" fill="black"/>
</svg>
