<svg width="41" height="433" viewBox="0 0 41 433" fill="none" xmlns="http://www.w3.org/2000/svg">
<path fill-rule="evenodd" clip-rule="evenodd" d="M21.8523 8.12915L32.8901 13.3642L32.8901 22.2034L9.61695 33.1255L9.64843 33.1412L9.61695 33.1543L21.9564 39.4269L21.9564 136.974L21.9933 136.955L21.9933 141.509L21.9564 141.49V139.026L17.115 141.282L9.61695 137.514L9.61695 145.041L17.115 141.282L21.9564 143.543L21.9564 199.439L28.0378 202.649L41 208.974L32.8162 213.191L32.8901 237.992L15.0509 246.651L15.0509 269.657L24.6966 274.608L24.6446 325.407L17.1205 329.354L28.469 335.27L24.6446 337.247L24.6884 433H0L0 0H21.8523L21.8523 8.12915ZM16.7058 55.8344V54.6476H9.61695V55.8344H16.7058ZM16.7058 57.6293V56.446H9.61695V57.6293H16.7058ZM16.7058 65.9213V64.7379H9.61695L9.61695 65.9213H16.7058ZM16.7058 80.1488L16.7058 76.5945H9.61695L9.61695 80.1488H16.7058ZM25.6151 222.093V220.906H23.254V222.093H25.6151ZM25.6151 226.635L25.6151 225.449H18.5276L18.5276 226.635H25.6151ZM25.6151 235.825V234.639H23.254V235.825H25.6151ZM20.8874 235.825V234.639H18.5276V235.825H20.8874Z" fill="black"/>
</svg>
