<svg width="41" height="433" viewBox="0 0 41 433" fill="none" xmlns="http://www.w3.org/2000/svg">
<path fill-rule="evenodd" clip-rule="evenodd" d="M19.1477 8.12916L8.10994 13.3642L8.10994 22.2034L31.3831 33.1255L31.3516 33.1412L31.3831 33.1543L19.0436 39.4269L19.0436 136.974L19.0067 136.955L19.0067 141.509L19.0436 141.49V139.026L23.885 141.282L31.3831 137.514L31.3831 145.041L23.885 141.282L19.0436 143.543L19.0436 199.439L12.9622 202.649L-1.63666e-06 208.974L8.18385 213.191L8.10994 237.992L25.9491 246.651L25.9491 269.657L16.3034 274.608L16.3554 325.407L23.8795 329.354L12.531 335.27L16.3554 337.247L16.3116 433H41L41 -5.126e-06H19.1477L19.1477 8.12916ZM24.2942 55.8344V54.6476H31.3831V55.8344H24.2942ZM24.2942 57.6293V56.446H31.3831V57.6293H24.2942ZM24.2942 65.9213V64.738H31.3831V65.9213H24.2942ZM24.2942 80.1488L24.2942 76.5945H31.3831V80.1488H24.2942ZM15.3849 222.093V220.906H17.746V222.093H15.3849ZM15.3849 226.635L15.3849 225.449H22.4724L22.4724 226.635H15.3849ZM15.3849 235.825V234.639H17.746V235.825H15.3849ZM20.1126 235.825V234.639H22.4724V235.825H20.1126Z" fill="black"/>
</svg>
