<svg width="1920" height="40" viewBox="0 0 1920 40" fill="none" xmlns="http://www.w3.org/2000/svg">
<g clip-path="url(#clip0_37_8)">
<path fill-rule="evenodd" clip-rule="evenodd" d="M1827.16 24.9791L1827.13 25.0061H1833.79L1833.76 24.9791H1827.16ZM1824.97 15.9641H1835.97L1830.46 21.4421L1833.76 24.9791H1920V0.925083H0.00195312V24.9871H271.885L279.538 33.0701H292.459L308.427 15.9641L308.45 15.9871L308.468 15.9641L317.639 24.9791H463.242L466.54 21.4421L461.032 15.9641H472.036L466.54 21.4421L469.845 24.9791H551.558L556.252 29.4221L565.498 38.6421L571.664 32.9341L602.911 32.9451H607.92L620.579 20.0171H654.21L661.449 27.0431L735.71 27.0051L741.481 21.4461L750.13 30.0701L753.021 27.0051L918.182 27.0431L930.943 39.9341L954.994 15.9641L955.001 15.9761L955.013 15.9641L964.065 24.9871H967.907L970.006 22.8941L966.671 19.5811H973.327L970.006 22.8941L972.068 24.9451L1050 24.9771V24.9871L1064.03 24.9831L1072 24.9871V24.9811L1225.93 24.9451L1227.99 22.8941L1224.67 19.5811H1231.33L1227.99 22.8941L1230.09 24.9871H1233.94L1242.99 15.9641L1243 15.9761L1243.01 15.9641L1267.06 39.9341L1279.82 27.0431L1368.98 27.0051L1371.87 30.0701L1380.52 21.4461L1386.29 26.9431L1635.55 26.9811L1642.79 20.0171H1676.42L1689.08 33.0081L1725.34 32.9971L1731.5 38.6421L1740.75 29.4221L1745.44 24.9791H1827.16L1830.46 21.4421L1824.97 15.9641ZM341.625 21.1431H339.89V15.9641H341.625V21.1431ZM344.249 21.1431H342.519V15.9641H344.249V21.1431ZM356.371 21.1431H354.641V15.9641H356.371V21.1431ZM377.169 21.1431H371.974V15.9641H377.169V21.1431ZM584.676 27.6521H582.942V25.9271H584.676V27.6521ZM591.317 27.6521H589.583V22.4741H591.317V27.6521ZM604.752 27.6521H603.018V25.9271H604.752V27.6521ZM604.752 24.1981H603.018V22.4741H604.752V24.1981ZM1693.98 27.6521H1692.25V25.9271H1693.98V27.6521ZM1693.98 24.1981H1692.25V22.4741H1693.98V24.1981ZM1707.42 27.6521H1705.68V22.4741H1707.42V27.6521ZM1714.06 27.6521H1712.32V25.9271H1714.06V27.6521ZM463.215 25.0061H469.872L469.845 24.9791H463.242L463.215 25.0061ZM754.223 34.0241L750.13 30.0701L746.026 34.0241H754.223ZM1375.98 34.0241L1371.87 30.0701L1367.78 34.0241H1375.98Z" fill="black"/>
</g>
<defs>
<clipPath id="clip0_37_8">
<rect width="1920" height="40" fill="white" transform="matrix(1 0 0 -1 0 40)"/>
</clipPath>
</defs>
</svg>
