<svg width="1728" height="30" viewBox="0 0 1728 30" fill="none" xmlns="http://www.w3.org/2000/svg">
<path fill-rule="evenodd" clip-rule="evenodd" d="M1644.44 18.4988L1644.42 18.5196H1650.41L1650.38 18.4988H1644.44ZM1642.47 11.5658H1652.37L1647.41 15.7787L1650.38 18.4988H1728V0H0V18.505H244.695L251.583 24.7212H263.211L277.583 11.5658L277.603 11.5835L277.62 11.5658L285.873 18.4988H416.916L419.884 15.7787L414.927 11.5658H424.831L419.884 15.7787L422.859 18.4988H496.401L500.625 21.9157L508.947 29.0064L514.496 24.6166L542.618 24.6251H547.127L558.52 14.6828H588.787L595.303 20.0861L662.138 20.0569L667.331 15.7817L675.116 22.4141L677.717 20.0569L826.362 20.0861L837.847 30L859.493 11.5658L859.5 11.575L859.51 11.5658L867.657 18.505H871.115L873.004 16.8953L870.003 14.3475H875.993L873.004 16.8953L874.86 18.4727L945 18.4973V18.505L957.627 18.5019L964.8 18.505V18.5003L1103.34 18.4727L1105.19 16.8953L1102.21 14.3475H1108.2L1105.19 16.8953L1107.08 18.505H1110.54L1118.69 11.5658L1118.7 11.575L1118.71 11.5658L1140.35 30L1151.84 20.0861L1232.08 20.0569L1234.68 22.4141L1242.47 15.7817L1247.66 20.0092L1472 20.0385L1478.51 14.6828H1508.78L1520.17 24.6735L1552.8 24.6651L1558.35 29.0064L1566.67 21.9157L1570.9 18.4988H1644.44L1647.41 15.7787L1642.47 11.5658ZM307.461 15.5487H305.899V11.5658H307.461V15.5487ZM309.822 15.5487H308.265V11.5658H309.822V15.5487ZM320.732 15.5487H319.175V11.5658H320.732V15.5487ZM339.45 15.5487H334.775V11.5658H339.45V15.5487ZM526.207 20.5545H524.646V19.2279H526.207V20.5545ZM532.184 20.5545H530.623V16.5723H532.184V20.5545ZM544.275 20.5545H542.715V19.2279H544.275V20.5545ZM544.275 17.8982H542.715V16.5723H544.275V17.8982ZM1524.58 20.5545H1523.02V19.2279H1524.58V20.5545ZM1524.58 17.8982H1523.02V16.5723H1524.58V17.8982ZM1536.68 20.5545H1535.11V16.5723H1536.68V20.5545ZM1542.65 20.5545H1541.09V19.2279H1542.65V20.5545ZM416.892 18.5196H422.883L422.859 18.4988H416.916L416.892 18.5196ZM678.799 25.4549L675.116 22.4141L671.422 25.4549H678.799ZM1238.38 25.4549L1234.68 22.4141L1231 25.4549H1238.38Z" fill="black"/>
</svg>
