<svg width="36" height="36" viewBox="0 0 36 36" fill="none" xmlns="http://www.w3.org/2000/svg">
<g clip-path="url(#clip0_83_4)">
<path d="M30.4127 6.73796C28.1225 5.70296 25.6676 4.93796 23.1005 4.50296C23.0776 4.49856 23.054 4.5014 23.0328 4.51107C23.0116 4.52075 22.9939 4.53678 22.9822 4.55696C22.6679 5.11046 22.3176 5.83196 22.0721 6.40196C19.3495 5.99432 16.5815 5.99432 13.8588 6.40196C13.5854 5.77025 13.277 5.1543 12.9352 4.55696C12.9236 4.53653 12.9061 4.52014 12.885 4.50995C12.8638 4.49977 12.8401 4.49628 12.817 4.49996C10.2513 4.93496 7.79644 5.69996 5.50473 6.73646C5.48501 6.74475 5.4683 6.75888 5.45683 6.77696C0.798554 13.6395 -0.478281 20.3325 0.14891 26.9415C0.150655 26.9576 0.155669 26.9733 0.163647 26.9875C0.171624 27.0017 0.182398 27.0141 0.195313 27.024C2.91423 29.0076 5.94681 30.5187 9.16608 31.494C9.18853 31.5009 9.21253 31.5009 9.23496 31.4939C9.25739 31.4869 9.27721 31.4734 9.29182 31.455C9.98457 30.5266 10.5984 29.5416 11.127 28.5105C11.1343 28.4964 11.1386 28.4808 11.1394 28.465C11.1402 28.4491 11.1376 28.4332 11.1318 28.4184C11.126 28.4036 11.1171 28.3903 11.1057 28.3792C11.0942 28.3682 11.0806 28.3597 11.0656 28.3545C10.0986 27.9896 9.16172 27.5492 8.26347 27.0375C8.24733 27.0282 8.23373 27.0151 8.22389 26.9993C8.21405 26.9835 8.20827 26.9655 8.20709 26.9469C8.2059 26.9284 8.20934 26.9098 8.21709 26.8928C8.22484 26.8759 8.23666 26.8612 8.25149 26.85C8.4401 26.7105 8.62871 26.565 8.80833 26.4195C8.8245 26.4064 8.84398 26.398 8.86459 26.3954C8.8852 26.3927 8.90615 26.3959 8.92509 26.4045C14.8033 29.0505 21.1695 29.0505 26.9789 26.4045C26.9979 26.3954 27.019 26.3918 27.04 26.3942C27.0609 26.3966 27.0807 26.4048 27.0971 26.418C27.2768 26.565 27.4639 26.7105 27.654 26.85C27.669 26.8609 27.681 26.8755 27.689 26.8923C27.697 26.909 27.7007 26.9276 27.6998 26.9461C27.6989 26.9647 27.6934 26.9828 27.6839 26.9987C27.6743 27.0146 27.661 27.028 27.645 27.0375C26.7499 27.5535 25.8188 27.99 24.8414 28.353C24.8263 28.3584 24.8127 28.367 24.8012 28.3782C24.7898 28.3894 24.7809 28.4029 24.7751 28.4178C24.7693 28.4327 24.7667 28.4487 24.7676 28.4647C24.7684 28.4806 24.7726 28.4963 24.78 28.5105C25.3189 29.541 25.9356 30.522 26.6137 31.4535C26.6278 31.4726 26.6474 31.4869 26.6699 31.4944C26.6924 31.5019 26.7167 31.5023 26.7394 31.4955C29.9642 30.5229 33.0017 29.0111 35.7236 27.024C35.7369 27.0147 35.7481 27.0026 35.7563 26.9886C35.7646 26.9747 35.7698 26.9591 35.7715 26.943C36.52 19.302 34.5172 12.663 30.4591 6.77996C30.4492 6.76084 30.4327 6.74594 30.4127 6.73796ZM12.0057 22.917C10.2364 22.917 8.7769 21.3135 8.7769 19.347C8.7769 17.379 10.2079 15.777 12.0057 15.777C13.8169 15.777 15.2629 17.3925 15.2344 19.347C15.2344 21.315 13.8034 22.917 12.0057 22.917V22.917ZM23.9432 22.917C22.1724 22.917 20.7145 21.3135 20.7145 19.347C20.7145 17.379 22.144 15.777 23.9432 15.777C25.7545 15.777 27.2004 17.3925 27.172 19.347C27.172 21.315 25.7559 22.917 23.9432 22.917V22.917Z" fill="black"/>
</g>
<defs>
<clipPath id="clip0_83_4">
<rect width="35.925" height="36" fill="white"/>
</clipPath>
</defs>
</svg>
