<svg width="36" height="36" viewBox="0 0 36 36" fill="none" xmlns="http://www.w3.org/2000/svg">
<g clip-path="url(#clip0_153_51)">
<path d="M30.4762 6.738C28.1812 5.703 25.7212 4.938 23.1487 4.503C23.1258 4.4986 23.1021 4.50143 23.0809 4.51111C23.0596 4.52078 23.0419 4.53682 23.0302 4.557C22.7152 5.1105 22.3642 5.832 22.1182 6.402C19.3899 5.99435 16.6161 5.99435 13.8877 6.402C13.6137 5.77029 13.3047 5.15433 12.9622 4.557C12.9506 4.53657 12.933 4.52017 12.9119 4.50999C12.8907 4.4998 12.8669 4.49632 12.8437 4.5C10.2727 4.935 7.81272 5.7 5.51622 6.7365C5.49646 6.74479 5.47971 6.75892 5.46822 6.777C0.800221 13.6395 -0.479279 20.3325 0.149221 26.9415C0.15097 26.9577 0.155994 26.9733 0.163988 26.9875C0.171982 27.0017 0.182779 27.0141 0.195721 27.024C2.92031 29.0076 5.95923 30.5187 9.18522 31.494C9.20771 31.5009 9.23176 31.5009 9.25424 31.4939C9.27672 31.487 9.29658 31.4734 9.31122 31.455C10.0054 30.5266 10.6206 29.5417 11.1502 28.5105C11.1576 28.4964 11.1618 28.4809 11.1626 28.465C11.1635 28.4491 11.1609 28.4333 11.1551 28.4185C11.1492 28.4037 11.1403 28.3903 11.1288 28.3793C11.1174 28.3682 11.1037 28.3598 11.0887 28.3545C10.1197 27.9896 9.18085 27.5492 8.28072 27.0375C8.26455 27.0283 8.25092 27.0152 8.24106 26.9994C8.2312 26.9836 8.22541 26.9656 8.22422 26.947C8.22303 26.9284 8.22647 26.9098 8.23424 26.8929C8.24201 26.876 8.25386 26.8612 8.26872 26.85C8.45772 26.7105 8.64672 26.565 8.82672 26.4195C8.84292 26.4064 8.86244 26.3981 8.8831 26.3954C8.90375 26.3928 8.92474 26.3959 8.94372 26.4045C14.8342 29.0505 21.2137 29.0505 27.0352 26.4045C27.0543 26.3954 27.0755 26.3919 27.0964 26.3943C27.1174 26.3966 27.1372 26.4049 27.1537 26.418C27.3337 26.565 27.5212 26.7105 27.7117 26.85C27.7267 26.861 27.7388 26.8755 27.7468 26.8923C27.7548 26.9091 27.7585 26.9276 27.7576 26.9462C27.7567 26.9647 27.7513 26.9828 27.7417 26.9987C27.7321 27.0147 27.7187 27.028 27.7027 27.0375C26.8057 27.5535 25.8727 27.99 24.8932 28.353C24.8782 28.3585 24.8645 28.3671 24.853 28.3782C24.8416 28.3894 24.8326 28.4029 24.8268 28.4178C24.821 28.4327 24.8184 28.4487 24.8193 28.4647C24.8201 28.4807 24.8244 28.4963 24.8317 28.5105C25.3717 29.541 25.9897 30.522 26.6692 31.4535C26.6833 31.4726 26.703 31.4869 26.7256 31.4944C26.7481 31.5019 26.7725 31.5023 26.7952 31.4955C30.0267 30.523 33.0706 29.0112 35.7982 27.024C35.8115 27.0147 35.8227 27.0027 35.831 26.9887C35.8393 26.9747 35.8444 26.9591 35.8462 26.943C36.5962 19.302 34.5892 12.663 30.5227 6.78C30.5128 6.76088 30.4963 6.74598 30.4762 6.738ZM12.0307 22.917C10.2577 22.917 8.79522 21.3135 8.79522 19.347C8.79522 17.379 10.2292 15.777 12.0307 15.777C13.8457 15.777 15.2947 17.3925 15.2662 19.347C15.2662 21.315 13.8322 22.917 12.0307 22.917ZM23.9932 22.917C22.2187 22.917 20.7577 21.3135 20.7577 19.347C20.7577 17.379 22.1902 15.777 23.9932 15.777C25.8082 15.777 27.2572 17.3925 27.2287 19.347C27.2287 21.315 25.8097 22.917 23.9932 22.917Z" fill="white"/>
</g>
<defs>
<clipPath id="clip0_153_51">
<rect width="36" height="36" fill="white"/>
</clipPath>
</defs>
</svg>
