<svg width="36" height="36" viewBox="0 0 36 36" fill="none" xmlns="http://www.w3.org/2000/svg">
<path d="M18.0007 13.3137C15.4202 13.3137 13.3143 15.4195 13.3143 18C13.3143 20.5805 15.4202 22.6863 18.0007 22.6863C20.5811 22.6863 22.687 20.5805 22.687 18C22.687 15.4195 20.5811 13.3137 18.0007 13.3137ZM32.0561 18C32.0561 16.0594 32.0737 14.1363 31.9647 12.1992C31.8557 9.94922 31.3425 7.95234 29.6971 6.30703C28.0483 4.6582 26.055 4.14843 23.805 4.03945C21.8643 3.93047 19.9413 3.94804 18.0042 3.94804C16.0635 3.94804 14.1405 3.93047 12.2034 4.03945C9.95339 4.14843 7.95651 4.66172 6.3112 6.30703C4.66237 7.95586 4.15261 9.94922 4.04362 12.1992C3.93464 14.1398 3.95222 16.0629 3.95222 18C3.95222 19.9371 3.93464 21.8637 4.04362 23.8008C4.15261 26.0508 4.66589 28.0477 6.3112 29.693C7.96003 31.3418 9.95339 31.8516 12.2034 31.9605C14.144 32.0695 16.0671 32.052 18.0042 32.052C19.9448 32.052 21.8678 32.0695 23.805 31.9605C26.055 31.8516 28.0518 31.3383 29.6971 29.693C31.346 28.0441 31.8557 26.0508 31.9647 23.8008C32.0772 21.8637 32.0561 19.9406 32.0561 18ZM18.0007 25.2105C14.0104 25.2105 10.7901 21.9902 10.7901 18C10.7901 14.0098 14.0104 10.7895 18.0007 10.7895C21.9909 10.7895 25.2112 14.0098 25.2112 18C25.2112 21.9902 21.9909 25.2105 18.0007 25.2105ZM25.5065 12.1781C24.5749 12.1781 23.8225 11.4258 23.8225 10.4941C23.8225 9.5625 24.5749 8.81015 25.5065 8.81015C26.4382 8.81015 27.1905 9.5625 27.1905 10.4941C27.1908 10.7154 27.1474 10.9345 27.0629 11.1389C26.9783 11.3433 26.8543 11.5291 26.6979 11.6855C26.5415 11.8419 26.3557 11.966 26.1513 12.0505C25.9468 12.135 25.7277 12.1784 25.5065 12.1781Z" fill="white"/>
</svg>
