<svg width="103" height="55" viewBox="0 0 103 55" fill="none" xmlns="http://www.w3.org/2000/svg">
<path fill-rule="evenodd" clip-rule="evenodd" d="M54.3284 0.289478C56.005 0.438251 57.8875 0.721902 58.5119 0.919814C59.9955 1.39053 60.9945 3.32593 60.6581 5.07935C60.3811 6.52472 60.8397 6.72941 62.3615 5.84016C63.5047 5.17255 63.577 4.51002 62.4521 5.01225C61.7351 5.3325 61.6396 5.26981 61.6396 4.47952C61.6396 3.82817 61.8034 3.6367 62.2413 3.77666C62.5744 3.88341 62.2441 3.2568 61.5011 2.37264C59.9375 0.511451 58.2145 -0.027722 53.9209 0.00108369L51.2803 0.019044L54.3284 0.289478ZM43.1134 1.58167C41.9235 2.38687 41.2922 3.47911 41.1224 5.02852C40.9843 6.2858 41.1086 6.44779 43.6143 8.28288C46.3005 10.2505 48.2334 12.5126 48.2334 13.6892C48.2334 14.0484 47.481 15.4077 46.5617 16.7094C43.9686 20.3813 43.9657 20.4189 45.8715 25.1257L47.5387 29.2429L47.1024 32.1936C46.0713 39.1717 38.8974 47.0465 31.5597 49.2543C26.0558 50.9108 20.868 50.413 14.1084 47.5792C11.7623 46.5958 9.34349 45.6872 8.73289 45.5608C8.08574 45.4262 7.36586 44.9155 7.00633 44.3354C6.14549 42.9469 6.23771 42.7155 7.2318 43.7694C8.24377 44.843 10.0061 44.9576 11.027 44.0165C12.7844 42.3962 10.5005 39.3276 8.19096 40.2053C7.60474 40.4283 6.91939 41.0647 6.66833 41.6198C6.17799 42.7026 5.57714 42.9662 5.57714 42.0984C5.57714 41.1186 6.44489 40.2029 7.83102 39.7197C10.0004 38.964 10.7146 39.1297 12.8222 40.8787C14.6487 42.3942 15.4376 42.7361 19.6151 43.8216C20.0498 43.9345 19.6915 43.7142 18.8189 43.3319C17.0939 42.5762 16.3371 42.0594 17.4364 42.3874C17.8142 42.5003 21.1877 42.7677 24.9329 42.9815C31.2127 43.3397 31.9147 43.3214 33.9574 42.7453C36.5878 42.0035 38.4834 40.6469 38.4834 39.5065C38.4834 39.0568 39.3211 37.3261 40.3444 35.6605C42.9237 31.4633 43.0452 30.1077 41.1858 26.2807C39.4397 22.6874 38.0499 20.9509 35.1818 18.7786C30.5883 15.2999 30.1061 14.9617 29.4297 14.7452C29.0466 14.6228 27.9079 13.4577 26.8984 12.1561C25.8892 10.8544 24.8834 9.69707 24.664 9.58354C23.9071 9.19348 24.276 8.80511 27.7308 6.35866C29.6369 5.00852 31.1165 3.83732 31.0186 3.75531C30.6692 3.46386 28.4896 4.67607 25.8547 6.6274L23.1795 8.60855L24.5454 10.9527C25.2969 12.2421 26.4092 13.7343 27.0178 14.2684L28.124 15.24L26.8037 16.1661C26.0741 16.6779 25.4834 17.4156 25.4834 17.8145C25.4834 18.212 25.0264 18.9183 24.4678 19.3842C23.6159 20.0949 23.453 20.5483 23.4582 22.1957C23.4619 23.2757 23.628 24.3751 23.8283 24.6387C24.0599 24.9441 24.1757 24.2493 24.1476 22.7213C24.1038 20.364 24.586 19.2392 25.6345 19.2507C25.8868 19.2534 26.824 19.8048 27.7178 20.4758C28.6115 21.1468 29.017 21.5033 28.6192 21.2678C28.0119 20.9086 27.8015 20.9431 27.3119 21.483C26.9906 21.8368 26.6985 22.2787 26.6627 22.4651C25.7438 27.2336 25.7503 27.5966 26.7667 28.2123C27.6215 28.7302 27.6357 28.7769 26.9053 28.6759C26.4584 28.6139 25.773 28.0297 25.3826 27.378C24.6949 26.2312 24.6721 26.222 24.6717 27.1001C24.6705 28.317 26.2715 29.3205 28.6603 29.6014C29.706 29.7241 30.956 30.0312 31.4382 30.2836C32.2442 30.7059 32.3039 30.6825 32.178 29.9929C32.1028 29.5804 31.9208 28.9169 31.7738 28.5187C31.6267 28.1202 31.697 27.6962 31.9302 27.5759C32.5359 27.2638 33.5223 28.6688 33.831 30.2833C34.0683 31.5229 33.985 31.7229 33.0055 32.2583C31.9745 32.8219 31.8883 32.8222 31.4033 32.2688C30.9389 31.7392 30.8938 31.7608 30.9292 32.4966C30.9787 33.5393 29.3338 33.8301 28.5356 32.9195C28.0497 32.3651 28.018 32.3949 28.2097 33.2313C28.3645 33.907 28.2573 34.1568 27.812 34.1568C27.1563 34.1568 25.7544 32.5993 25.7544 31.871C25.7544 31.6273 25.1848 30.8784 24.4893 30.207L23.2238 28.9864L22.7063 29.9342C22.2415 30.7848 22.2541 30.8367 22.8281 30.4392C23.362 30.0698 23.5988 30.0959 24.2626 30.5971C24.7001 30.9272 24.9687 31.3179 24.8598 31.465C24.7505 31.6121 25.0467 32.2773 25.5175 32.9429C26.3109 34.065 26.3223 34.1697 25.6715 34.3781C25.2855 34.5014 24.6282 34.4249 24.211 34.2073C23.743 33.9636 23.4521 33.9433 23.4521 34.1541C23.4521 34.7272 21.5554 34.5343 20.9825 33.9026C20.5247 33.398 20.5296 33.3729 21.0138 33.7332C21.327 33.9663 21.7751 34.1517 22.01 34.1456C22.2444 34.1392 21.986 33.8216 21.4355 33.4394L20.4341 32.7443L21.4355 32.1024C22.6352 31.3332 21.9884 31.2196 20.699 31.9733C20.1046 32.3204 19.7959 32.3661 19.7959 32.1069C19.7959 31.8903 19.2653 32.1865 18.6174 32.7653C17.969 33.3441 17.1922 33.8169 16.8908 33.8159C16.0515 33.8132 13.2366 33.151 11.874 32.6362C11.2037 32.383 10.1377 32.0682 9.50518 31.9364C8.02439 31.6287 7.72417 30.9306 8.56308 29.7458C8.93196 29.2253 9.23339 28.5651 9.23339 28.2787C9.23339 27.9924 9.44505 27.6488 9.70383 27.5156C10.026 27.3492 10.1015 27.503 9.94474 28.0042C9.81839 28.4065 9.88136 28.6502 10.0837 28.5455C10.2864 28.4411 10.4517 27.4878 10.4509 26.4271C10.4505 25.3663 10.7524 23.4584 11.122 22.1875C11.742 20.0573 11.7432 19.7868 11.1395 18.7302C10.7792 18.1002 10.0199 17.3306 9.45277 17.0205C8.68008 16.5982 8.41033 16.1468 8.37824 15.2247L8.33558 13.9928L7.87043 15.2057C7.61449 15.873 6.60292 17.1693 5.62224 18.0863C1.80146 21.6602 -0.403669 27.5623 0.0614872 32.9707C0.36455 36.4904 0.717581 37.5535 3.25746 42.5867C5.90499 47.8327 7.05914 48.9317 11.6709 50.5991C13.5701 51.2853 16.4037 52.3274 17.9678 52.9144C20.6718 53.9293 21.061 53.9815 25.8896 53.9775C30.1378 53.9737 31.3614 53.8497 33.3776 53.219C40.6365 50.9474 46.454 45.8526 48.7595 39.7485C50.0883 36.2301 49.9786 30.6784 48.5007 26.6114C47.206 23.05 47.1946 22.8348 48.2354 21.6155C49.5009 20.1332 51.069 17.1333 51.069 16.1956C51.069 15.0258 49.2815 11.93 47.6419 10.2613L46.2793 8.87424L51.2742 8.89186L56.2686 8.90949L54.8451 10.2244C54.0619 10.9476 52.9662 12.3682 52.4105 13.3815C51.1076 15.7554 51.3546 17.3065 53.5313 20.4134L55.1441 22.7162L54.1659 25.3016C51.1304 33.3245 51.9018 39.6861 56.607 45.4303C61.1156 50.9349 68.212 54.1537 75.8308 54.1493C80.072 54.1472 81.0462 53.9307 88.249 51.3894C92.476 49.8979 94.2493 49.0873 95.1553 48.2329C96.61 46.8604 100.277 40.2744 101.3 37.196C102.403 33.8762 102.308 28.2835 101.092 25.0068C99.9194 21.847 99.5103 21.1858 97.0732 18.5106C95.9982 17.3306 94.8977 15.7351 94.6271 14.9651C94.357 14.1948 93.8626 13.3757 93.5282 13.1443C92.801 12.641 92.7434 12.9179 93.3942 13.7871C93.787 14.3117 93.5794 14.9048 92.1754 17.2689C90.3579 20.3294 90.0073 22.3116 91.1041 23.3228C91.5872 23.7681 91.6323 24.0992 91.3073 24.8119C90.5232 26.5325 90.8055 27.5291 92.5146 29.0734C93.4084 29.881 94.1396 30.5998 94.1396 30.671C94.1396 31.0075 91.8317 32.442 91.2756 32.4515C90.9295 32.4576 90.4724 32.5942 90.26 32.7551C89.876 33.0466 86.4871 33.8179 85.5913 33.8179C85.3334 33.8179 84.5915 33.3441 83.9432 32.7653C83.2952 32.1865 82.7646 31.8903 82.7646 32.1069C82.7646 32.3661 82.4559 32.3204 81.8615 31.9733C80.5721 31.2196 79.9254 31.3332 81.125 32.1024L82.1264 32.7443L81.125 33.4394C80.5745 33.8216 80.3158 34.1392 80.5506 34.1456C80.785 34.1517 81.2335 33.9663 81.5467 33.7332C82.031 33.3729 82.0358 33.398 81.578 33.9026C81.0052 34.5343 79.1084 34.7272 79.1084 34.1541C79.1084 33.9433 78.8175 33.9636 78.3495 34.2073C77.9323 34.4249 77.275 34.5014 76.889 34.3781C76.2382 34.1697 76.2496 34.065 77.043 32.9429C77.5139 32.2773 77.81 31.6121 77.7007 31.465C77.5919 31.3179 77.8604 30.9272 78.2979 30.5971C78.9617 30.0959 79.1986 30.0698 79.7324 30.4392C80.3064 30.8367 80.319 30.7848 79.8543 29.9342L79.3367 28.9864L78.0712 30.207C77.3757 30.8784 76.8062 31.6273 76.8062 31.871C76.8062 32.601 75.4038 34.1568 74.7453 34.1568C74.2765 34.1568 74.1863 33.8969 74.363 33.0554C74.5722 32.0601 74.5507 32.0289 74.1395 32.7335C73.4932 33.8416 71.5761 33.6607 71.6314 32.4966C71.6671 31.7527 71.6261 31.7344 71.1479 32.2797C70.6543 32.8426 70.5536 32.8334 69.3454 32.1157C68.3968 31.5524 68.1112 31.1559 68.2424 30.5842C68.3732 30.0139 68.2648 29.8624 67.826 30.003C66.9729 30.2762 67.5644 28.8047 68.745 27.7179C69.2511 27.2519 69.9003 26.4894 70.188 26.0234C70.6446 25.283 70.634 25.2284 70.1059 25.5917C69.3031 26.1437 68.5459 25.53 68.5459 24.328C68.5459 23.5492 70.7019 20.6012 71.2714 20.6012C71.3913 20.6012 71.2633 20.8279 70.9879 21.1051C70.712 21.3823 70.5881 21.8304 70.7124 22.1008C70.8432 22.3855 70.6486 22.6657 70.2501 22.767C69.8715 22.8629 70.2477 22.9033 71.0866 22.8562C72.4565 22.7789 72.5852 22.8409 72.3537 23.4648C72.2115 23.8471 71.7427 24.5774 71.3112 25.0884C70.8802 25.5991 70.5438 26.2854 70.5637 26.6134C70.7067 28.9413 70.7721 29.0734 71.7959 29.0948L72.8115 29.1165L71.7959 29.4869C71.2373 29.6906 70.6734 29.8417 70.5434 29.8231C70.413 29.8041 70.3062 29.9959 70.3062 30.2491C70.3062 30.6313 70.45 30.6344 71.1528 30.267C71.6184 30.0237 72.8546 29.7241 73.9003 29.6014C76.3012 29.3191 77.8949 28.316 77.8738 27.1001L77.858 26.1929L77.3095 27.2434C77.0081 27.8216 76.4519 28.3933 76.0733 28.5143C74.9301 28.8803 74.8147 28.764 75.7678 28.2069C76.4377 27.8158 76.6709 27.3393 76.6709 26.363C76.6709 25.6391 76.4722 24.9444 76.2293 24.819C75.9864 24.694 75.8828 24.2873 75.9994 23.9155C76.2492 23.1185 75.7682 21.93 74.9041 21.2092C74.3532 20.7496 74.4211 20.6127 75.5431 19.921C76.4678 19.3507 76.9666 19.2351 77.4367 19.4829C78.2569 19.9143 78.7001 21.7107 78.4657 23.6512C78.3292 24.778 78.3816 24.9993 78.666 24.4984C78.878 24.1257 79.0641 23.0131 79.08 22.0262C79.1035 20.5453 78.9309 20.0834 78.0928 19.3842C77.5342 18.9183 77.0771 18.1802 77.0771 17.7444C77.0771 16.7063 75.327 15.7452 73.7812 15.9347C72.5015 16.0912 72.1765 15.6293 73.3193 15.2779C73.7105 15.1573 74.1607 14.8953 74.3203 14.6954C74.4796 14.4954 74.8277 14.3317 75.0938 14.3317C75.3599 14.3317 75.6211 14.085 75.6744 13.7837C75.7272 13.4821 76.4194 12.4489 77.2124 11.4871C79.5837 8.6116 79.5756 8.5384 76.6225 6.30749C73.5736 4.00405 71.0565 2.46617 70.7518 2.72C70.5491 2.88944 72.4544 4.4785 76.6169 7.6112L78.3914 8.94643L77.1848 10.4528C76.521 11.2814 75.4692 12.6075 74.8472 13.3998C74.2257 14.1921 73.5489 14.8401 73.3441 14.8401C72.8448 14.8401 67.7281 18.2615 65.859 19.8451C63.5376 21.8117 62.1048 23.9098 60.9722 27.0025C59.489 31.0529 59.7603 32.0614 64.6235 40.5747C65.1943 41.5737 69.1784 43.2879 71.0638 43.3458C72.7063 43.396 83.9992 42.6704 84.6679 42.4715C84.9328 42.3928 85.2151 42.4925 85.2956 42.6931C85.5552 43.3434 87.114 42.6443 88.9246 41.0657C90.5797 39.6224 90.7925 39.5387 92.4383 39.6844C95.7378 39.9766 96.9208 41.7994 95.4405 44.3099C94.9184 45.1955 94.3497 45.5787 93.1191 45.8749C92.2226 46.0905 90.186 46.8147 88.5931 47.4836C76.4101 52.6019 65.3203 49.9487 58.3856 40.2568C54.3621 34.634 53.8108 30.0271 56.4941 24.4564C57.3131 22.7559 57.9834 20.9411 57.9834 20.424C57.9834 19.9068 57.1607 18.2249 56.1553 16.6863C55.1498 15.1474 54.3271 13.5902 54.3271 13.2256C54.3271 12.5444 56.1723 10.0163 56.8187 9.81195C57.0177 9.74892 57.37 9.40156 57.6023 9.03996C57.931 8.52722 57.8404 8.18697 57.1912 7.49869C56.2004 6.44745 56.1333 5.34199 56.9783 3.97864C58.0468 2.25538 58.713 2.70136 58.6492 5.09697C58.6184 6.26208 58.4152 7.32111 58.1983 7.4509C57.9814 7.58036 57.9444 7.80369 58.1162 7.94704C58.5546 8.3127 59.7831 7.60137 59.9521 6.88428C60.0386 6.51658 59.9208 6.37628 59.6445 6.51862C58.9328 6.88564 58.657 5.77136 59.1928 4.69234C59.8647 3.33881 59.3208 2.67391 56.9182 1.91276C55.4785 1.45662 53.8461 1.2848 50.9488 1.2848C46.7242 1.28446 45.8446 1.50304 44.3167 2.93248C43.553 3.64686 43.4075 4.0742 43.5916 5.06207C43.8747 6.58097 43.2666 6.98798 42.3871 5.86863C41.4291 4.64896 41.579 3.82715 43.0062 2.47091C44.4016 1.14518 44.4589 0.671746 43.1134 1.58167ZM55.8794 2.50921L57.1266 2.71729L56.2771 3.67601C55.5768 4.46596 55.4699 4.93668 55.6706 6.34849L55.914 8.06226L53.394 8.05413C50.6278 8.04532 47.9531 7.62509 47.3242 7.10049C47.0569 6.8775 47.7942 6.80972 49.5066 6.89953L52.0928 7.03543L49.8978 6.6169C48.6904 6.38679 47.5671 5.96962 47.4022 5.69003C47.2369 5.41045 46.8595 4.72419 46.5633 4.16503C46.2671 3.60586 45.9633 3.04669 45.8881 2.92265C45.8125 2.79862 46.0811 2.62545 46.4845 2.53835C47.6066 2.29571 54.4714 2.27436 55.8794 2.50921ZM36.1739 3.23782C36.5793 3.61738 37.2651 4.00541 37.6977 4.09962C38.8283 4.34633 38.249 3.74717 36.7312 3.09955C35.4394 2.54852 35.4381 2.54886 36.1739 3.23782ZM44.9834 4.81874C44.9834 5.08477 45.2641 5.53685 45.6074 5.82321C46.1684 6.29122 46.1477 6.41322 45.4043 7.03339C44.9493 7.41295 44.5601 7.68542 44.539 7.63865C44.32 7.14997 44.4297 4.33447 44.6681 4.33447C44.8416 4.33447 44.9834 4.55238 44.9834 4.81874ZM79.9225 9.28735C79.9201 9.85635 81.5365 11.4549 82.0834 11.4244C82.3872 11.4074 82.3645 11.3319 82.0204 11.2173C81.7226 11.1184 81.1295 10.5585 80.7017 9.97326C80.2739 9.38834 79.9233 9.07961 79.9225 9.28735ZM22.0303 16.3556C20.6819 16.7263 20.582 16.8083 21.4449 16.8378C22.0165 16.8575 22.8391 16.6494 23.273 16.3759C24.2167 15.7805 24.1273 15.7791 22.0303 16.3556ZM78.7021 16.2163C78.7021 16.5362 81.4691 17.0506 81.7827 16.789C81.892 16.6979 81.2436 16.4671 80.3418 16.2759C79.4399 16.0851 78.7021 16.058 78.7021 16.2163ZM9.45846 22.3977C7.21677 25.5073 6.65127 26.8832 6.47008 29.6635C6.27874 32.6023 6.41808 33.0886 8.46639 36.6138C9.54621 38.4729 9.56083 38.5624 8.78611 38.5624C7.57914 38.5624 5.66652 39.4842 5.12621 40.3263C4.67852 41.0241 4.60621 40.9705 3.86196 39.391C2.69764 36.9208 1.79617 33.7576 2.18821 33.5183C2.3763 33.4034 2.53311 31.2508 2.53677 28.7346C2.54327 24.21 2.5583 24.1355 3.90502 21.9717C4.65414 20.7683 5.83471 19.1948 6.52858 18.4743L7.78999 17.1648L9.01483 19.2395L10.2401 21.3139L9.45846 22.3977ZM96.6767 19.7794C98.3005 21.5603 99.9965 25.4012 100.407 28.2262C100.677 30.0847 99.1158 36.4863 97.7341 39.1849L96.9818 40.655L95.7325 39.778C95.0456 39.2957 94.0405 38.9013 93.499 38.9013C92.9575 38.9013 92.5146 38.8616 92.5146 38.8131C92.5146 38.7647 93.146 37.5132 93.9178 36.0326C96.5507 30.9797 96.2566 27.7626 92.7044 22.766C91.9577 21.7155 91.9593 21.7039 93.1187 19.7923C93.759 18.737 94.4789 17.9267 94.719 17.9921C94.959 18.0571 95.8398 18.8617 96.6767 19.7794ZM17.0614 19.596C14.5305 21.1485 12.8896 23.4187 12.8896 25.3673C12.8896 26.506 13.0729 27.0262 13.5246 27.1709C13.874 27.2828 14.0519 27.52 13.9195 27.6986C13.6493 28.0632 14.8234 28.6614 16.6816 29.106C17.954 29.4103 21.1674 28.9216 20.8993 28.4645C20.8221 28.3333 21.297 27.7687 21.9543 27.2096C22.6112 26.6504 23.0089 26.4216 22.8371 26.7012C22.588 27.1075 22.666 27.0994 23.2259 26.6605C23.8852 26.1441 23.8864 26.0143 23.2458 24.4578C22.8716 23.5482 22.5218 22.0588 22.469 21.1475C22.3094 18.3937 20.0689 17.7508 17.0614 19.596ZM80.9442 19.0294C80.4149 19.3527 80.1585 19.9888 80.0915 21.1475C80.0387 22.0588 79.6889 23.5482 79.3148 24.4578C78.6741 26.0143 78.6753 26.1441 79.3347 26.6605C79.89 27.0957 79.9668 27.1038 79.7056 26.7012C79.5244 26.4216 79.9168 26.6504 80.5782 27.2096C81.2396 27.7687 81.7222 28.3333 81.6511 28.4645C81.4017 28.9233 84.609 29.4096 85.879 29.106C87.7371 28.6614 88.9112 28.0632 88.641 27.6986C88.5086 27.52 88.6865 27.2828 89.0359 27.1709C89.4881 27.0262 89.6709 26.5053 89.6709 25.3602C89.6709 23.4313 88.2527 21.4613 85.6055 19.714C83.7555 18.493 82.1987 18.2642 80.9442 19.0294ZM21.7727 20.1312C21.9149 20.7422 21.8865 20.7445 21.1312 20.1776C20.697 19.8512 19.8987 19.5737 19.3575 19.5608C18.4549 19.5388 18.441 19.5147 19.1865 19.2683C20.2785 18.9071 21.5899 19.3446 21.7727 20.1312ZM83.1709 19.5225C82.6123 19.5893 81.7555 19.9529 81.2672 20.3308L80.3787 21.0177L80.6123 20.2728C80.8813 19.4151 82.1569 18.9189 83.359 19.2046C84.1077 19.3825 84.0898 19.4127 83.1709 19.5225ZM71.8463 20.0139C71.4449 20.346 71.3986 20.307 71.6188 19.8241C71.7715 19.49 71.9986 19.3019 72.1237 19.4063C72.2489 19.5103 72.1241 19.7838 71.8463 20.0139ZM32.143 23.7397C32.4079 24.0901 32.4079 24.5272 32.1426 25.0227L31.7409 25.774L31.1083 24.9668C30.7602 24.5228 30.3458 23.8176 30.1874 23.3998C29.9302 22.7213 29.9976 22.6705 30.8203 22.9243C31.3269 23.0805 31.922 23.4475 32.143 23.7397ZM67.9325 25.4304C67.9215 26.5955 67.6895 27.8816 67.4169 28.2886C67.1439 28.6959 66.9152 29.3059 66.9079 29.6441C66.901 29.9827 66.619 30.5642 66.2819 30.9363C65.8285 31.4369 65.7359 32.0608 65.926 33.3299C66.2607 35.5656 65.224 37.97 64.2689 37.1733C63.1956 36.2776 62.0459 32.9151 62.0459 30.6703V28.5228L64.9234 25.9174C66.5061 24.4845 67.8354 23.3123 67.8768 23.3123C67.9186 23.3123 67.9434 24.2656 67.9325 25.4304ZM37.6591 26.447L40.1697 28.904L40.0255 31.4457C39.9219 33.2652 39.5868 34.517 38.845 35.8512L37.809 37.7151L37.0855 36.5582C36.5245 35.6608 36.4201 34.9742 36.6203 33.4994C36.8133 32.0757 36.726 31.4297 36.2718 30.9285C35.9382 30.5605 35.6595 29.9827 35.6526 29.6441C35.6453 29.3059 35.4113 28.6959 35.1318 28.2886C34.6135 27.5329 34.4111 23.9935 34.886 23.9915C35.0303 23.9908 36.2779 25.0959 37.6591 26.447ZM31.7969 29.435C32.2081 29.9898 31.8798 30.02 30.7646 29.5299C29.7905 29.1016 29.7856 29.0833 30.6391 29.0785C31.1286 29.0758 31.6499 29.2361 31.7969 29.435ZM66.9705 31.6744C66.6166 32.1824 66.537 32.197 66.5268 31.7564C66.5138 31.1858 66.9412 30.6717 67.2288 30.9119C67.3239 30.9912 67.2077 31.3342 66.9705 31.6744ZM68.3151 33.2476C67.9455 34.0507 67.3271 33.6075 67.3271 32.5393C67.3271 31.7297 67.3897 31.6917 67.9515 32.1601C68.3034 32.4539 68.4622 32.928 68.3151 33.2476ZM33.8582 34.3469C33.541 35.0366 32.9275 34.9518 32.687 34.1853C32.41 33.3008 33.2456 32.6111 33.7262 33.3279C33.9224 33.62 33.9817 34.0785 33.8582 34.3469ZM69.8784 34.1693C69.7638 34.5353 69.5026 34.8346 69.2983 34.8346C68.7632 34.8346 68.4163 33.9111 68.7104 33.2713C69.076 32.4766 70.1502 33.3025 69.8784 34.1693ZM32.2336 34.3625C32.4762 35.1687 31.9793 35.8285 31.1169 35.8462C30.6196 35.856 30.3974 34.3564 30.8313 33.9203C31.4996 33.2486 31.9403 33.3879 32.2336 34.3625ZM71.7293 33.9203C72.1631 34.3564 71.9409 35.856 71.4437 35.8462C70.5812 35.8285 70.0844 35.1687 70.3269 34.3625C70.6202 33.3879 71.061 33.2486 71.7293 33.9203ZM10.9535 35.1599C11.7107 35.898 13.0785 37.6504 13.993 39.0538L15.6554 41.6056L13.0623 39.6604C11.122 38.2045 10.2628 37.2641 9.64817 35.9231C9.19683 34.9376 8.82714 34.0609 8.82714 33.9745C8.82714 33.4743 9.75339 33.9904 10.9535 35.1599ZM92.3135 36.4324C91.6107 37.7175 90.5252 38.9179 89.1627 39.9166L87.0839 41.4402L88.6114 39.0155C90.2652 36.3904 92.9924 33.4885 93.2349 34.0958C93.3178 34.3029 92.903 35.3541 92.3135 36.4324ZM30.3584 35.5408C30.3584 35.6716 30.0773 35.8689 29.7336 35.9787C28.9901 36.2166 28.5299 35.4239 28.9219 34.5804C29.179 34.0277 29.2371 34.0321 29.7779 34.6451C30.0972 35.0071 30.3584 35.41 30.3584 35.5408ZM73.8271 35.1735C73.8271 35.956 73.3547 36.2359 72.6486 35.8719C72.2355 35.6591 72.2221 35.4371 72.5869 34.8681C73.1178 34.0406 73.8271 34.2151 73.8271 35.1735ZM17.7646 36.2745C18.3232 37.236 19.2633 38.314 19.8536 38.6701C21.1333 39.4425 24.3012 40.002 24.8537 39.5536C25.093 39.3591 24.8614 39.231 24.2443 39.2164C23.6971 39.2032 22.8834 39.0734 22.4365 38.9277C21.988 38.7816 23.3843 38.7084 25.5529 38.7643C28.5981 38.8426 29.5918 38.7552 29.97 38.375C30.2381 38.1052 30.7187 37.8846 31.0372 37.8846C31.3557 37.8846 32.3385 37.5935 33.2208 37.238C34.7325 36.6287 35.5974 36.7805 35.0242 37.5542C34.8824 37.745 35.0047 37.8595 35.2951 37.8083C35.9976 37.6843 36.2389 39.1463 35.6185 39.7695C34.4928 40.9014 31.9021 41.1393 24.9837 40.7469C21.3482 40.5405 17.9986 40.2043 17.54 39.9993C16.8506 39.6912 14.5146 36.6798 14.5146 36.099C14.5146 36.0061 14.8803 35.8506 15.3271 35.753C15.774 35.6557 16.1396 35.3327 16.1396 35.0359C16.1396 34.05 16.7368 34.5052 17.7646 36.2745ZM67.8512 35.1735C67.7342 35.5462 67.5685 35.8512 67.4827 35.8512C67.3974 35.8512 67.3271 35.5462 67.3271 35.1735C67.3271 34.8007 67.4929 34.4957 67.6952 34.4957C67.8979 34.4957 67.9678 34.8007 67.8512 35.1735ZM86.5387 35.1735C86.6553 35.5462 87.0575 35.8512 87.4325 35.8512C87.807 35.8512 88.0516 35.9658 87.976 36.1054C87.1566 37.6169 85.5393 39.8827 85.0258 40.2382C84.1386 40.8526 71.2982 41.627 69.3584 41.183C67.2463 40.6997 65.6855 39.6733 65.9995 38.9738C66.2274 38.4665 66.1738 38.4519 65.575 38.8579C64.6223 39.5045 64.6873 38.8664 65.7509 37.1268C66.5703 35.7872 66.6406 35.7506 67.1902 36.3779C67.5083 36.7405 67.8061 36.9811 67.8524 36.9127C67.8987 36.8442 68.6442 37.0347 69.5095 37.3363C70.3748 37.6379 71.312 37.8846 71.5928 37.8846C71.8731 37.8846 72.3224 38.1052 72.5905 38.375C72.9687 38.7552 73.9624 38.8426 77.0077 38.7643C79.1762 38.7084 80.5725 38.7816 80.124 38.9277C79.6771 39.0734 78.9004 39.2032 78.3975 39.2164C77.8945 39.2293 77.4834 39.3943 77.4834 39.5831C77.4834 40.0213 80.5494 39.6475 82.018 39.0304C83.3602 38.4661 84.6163 37.1607 85.2716 35.6489C85.84 34.3378 86.2308 34.191 86.5387 35.1735ZM26.4807 36.1054C26.6851 36.6697 26.5916 36.8679 26.12 36.8679C25.6747 36.8679 25.4834 36.5422 25.4834 35.7835C25.4834 34.6255 26.0058 34.7943 26.4807 36.1054ZM28.254 35.7699C28.4051 36.6544 27.3371 36.8371 26.9487 35.9929C26.5352 35.0942 26.6688 34.7797 27.4131 34.8979C27.8043 34.96 28.1825 35.3524 28.254 35.7699ZM75.8523 35.2582C75.8405 36.0458 75.1365 36.6304 74.4601 36.4141C73.9275 36.2437 73.8812 36.0617 74.2301 35.5174C74.7111 34.7678 75.862 34.5838 75.8523 35.2582ZM77.0771 35.8512C77.0771 36.529 76.874 36.8679 76.4678 36.8679C75.7479 36.8679 75.741 36.8306 76.2545 35.7038C76.7798 34.5519 77.0771 34.6051 77.0771 35.8512ZM23.2068 35.7123C23.7877 36.9747 22.6128 37.076 21.815 35.8323C21.4644 35.2856 21.5257 35.1735 22.1757 35.1735C22.6063 35.1735 23.0707 35.4161 23.2068 35.7123ZM24.8106 35.9211C25.0792 36.7788 24.913 37.0326 24.2919 36.7124C23.7702 36.4436 23.7089 35.1735 24.2171 35.1735C24.4145 35.1735 24.6815 35.51 24.8106 35.9211ZM34.3429 35.5378C34.2629 35.7381 34.024 35.9021 33.8115 35.9021C33.5991 35.9021 33.3602 35.7381 33.2801 35.5378C33.2001 35.3375 33.439 35.1735 33.8115 35.1735C34.1841 35.1735 34.4229 35.3375 34.3429 35.5378ZM69.2654 35.5761C69.0143 36.2044 68.1396 36.3084 68.1396 35.7099C68.1396 35.4151 68.4293 35.1735 68.7827 35.1735C69.1366 35.1735 69.3539 35.3544 69.2654 35.5761ZM78.7021 35.8313C78.7021 36.4514 78.0241 37.0929 77.6756 36.8022C77.3965 36.5697 77.9689 35.1735 78.3434 35.1735C78.5405 35.1735 78.7021 35.4693 78.7021 35.8313ZM80.7456 35.8323C80.2081 36.6697 79.6365 36.9676 79.3383 36.5653C78.9341 36.0197 79.5703 35.1735 80.3848 35.1735C81.0348 35.1735 81.0962 35.2856 80.7456 35.8323ZM32.8568 36.3596C32.8568 36.5365 32.6602 36.7361 32.4201 36.8029C32.18 36.8696 31.9834 36.6703 31.9834 36.3596C31.9834 36.0488 32.18 35.8496 32.4201 35.9163C32.6602 35.9831 32.8568 36.1827 32.8568 36.3596ZM70.5771 36.3596C70.5771 36.6392 70.4053 36.8679 70.1949 36.8679C69.6826 36.8679 69.3157 36.3386 69.6403 36.0678C70.0978 35.6862 70.5771 35.8357 70.5771 36.3596ZM31.5771 36.6622C31.5771 37.2888 30.3373 37.6636 29.786 37.2038C29.4748 36.9442 29.5236 36.748 29.9554 36.5202C30.8374 36.0549 31.5771 36.1197 31.5771 36.6622ZM72.6051 36.5202C73.037 36.748 73.0857 36.9442 72.7745 37.2038C72.2233 37.6636 70.9834 37.2888 70.9834 36.6622C70.9834 36.1197 71.7232 36.0549 72.6051 36.5202ZM29.5175 37.993C29.5329 38.1455 29.1364 38.2218 28.6359 38.1625C27.5142 38.029 27.1783 36.9743 28.2024 36.8001C28.8573 36.689 29.4374 37.2149 29.5175 37.993ZM74.9598 37.5047C74.8907 37.807 74.3991 38.1055 73.8674 38.1686C73.1048 38.2591 72.9553 38.1635 73.1605 37.7172C73.3039 37.4061 73.4209 37.0255 73.4209 36.872C73.4209 36.7181 73.7955 36.6741 74.2529 36.774C74.7424 36.8808 75.0337 37.1817 74.9598 37.5047ZM24.8281 37.7375C25.0182 38.1506 24.8326 38.2445 23.9888 38.1611C23.3928 38.1022 22.8306 37.8636 22.7388 37.6304C22.4897 36.9977 24.536 37.1024 24.8281 37.7375ZM26.8167 37.5457C27.1478 37.5457 27.1466 37.6494 26.8106 37.9297C26.2788 38.3733 25.0771 38.0896 25.0771 37.5199C25.0771 37.3075 25.3656 37.2268 25.7198 37.34C26.0733 37.4532 26.5669 37.5457 26.8167 37.5457ZM66.1478 37.5183C65.7367 37.7355 65.8675 37.805 66.6166 37.7673C67.1878 37.7385 67.5709 37.6006 67.4673 37.461C67.2227 37.1306 66.851 37.1468 66.1478 37.5183ZM77.4834 37.5562C77.4834 38.0391 76.4105 38.3387 75.8031 38.0256C75.444 37.8405 75.5249 37.6951 76.0883 37.5111C77.1998 37.1478 77.4834 37.1573 77.4834 37.5562ZM79.8218 37.6304C79.73 37.8636 79.1677 38.1022 78.5717 38.1611C77.728 38.2445 77.5423 38.1506 77.7324 37.7375C78.0245 37.1024 80.0708 36.9977 79.8218 37.6304ZM59.8404 38.7559C59.4894 39.049 59.2021 39.4858 59.2021 39.7271C59.2021 40.3809 60.8003 41.9513 61.4662 41.9513C62.353 41.9513 62.1556 41.2338 61.2123 41.0281C60.6443 40.9044 60.4176 40.6181 60.5013 40.1314C60.6858 39.0561 61.8192 39.0721 62.4489 40.1589C62.9311 40.9915 63.0176 41.0254 63.1765 40.4415C63.2915 40.0172 62.9669 39.4997 62.2722 39.0012C60.9892 38.0808 60.6866 38.0503 59.8404 38.7559ZM32.7959 39.4096C32.514 39.6932 32.4697 39.9179 32.6964 39.9179C32.9198 39.9179 33.3301 39.6892 33.6084 39.4096C33.8903 39.1259 33.9346 38.9013 33.7079 38.9013C33.4845 38.9013 33.0742 39.13 32.7959 39.4096ZM68.9521 39.4096C69.2304 39.6892 69.6407 39.9179 69.8642 39.9179C70.0909 39.9179 70.0466 39.6932 69.7646 39.4096C69.4864 39.13 69.076 38.9013 68.8526 38.9013C68.6259 38.9013 68.6702 39.1259 68.9521 39.4096ZM91.1476 40.9593C89.1606 42.263 90.0357 44.7752 92.4765 44.7752C94.036 44.7752 94.8473 44.168 95.1886 42.7446C95.384 41.9299 95.2442 41.5172 94.5881 40.9698C93.5091 40.0698 92.5081 40.0664 91.1476 40.9593ZM10.249 42.2902C10.249 43.2607 10.0837 43.4959 9.33902 43.584C8.69105 43.661 8.29536 43.4475 7.96508 42.8432C7.29721 41.6202 7.77252 40.8665 9.12939 40.9966C10.1137 41.0912 10.249 41.2474 10.249 42.2902ZM94.1396 42.2373C94.1396 43.2912 93.1557 44.0924 92.1791 43.8338C91.1212 43.5539 90.9867 42.2576 91.9333 41.4677C92.7161 40.815 94.1396 41.3114 94.1396 42.2373ZM8.19583 41.9808C7.84117 42.4593 8.62442 43.1126 9.19805 42.8168C9.44099 42.6914 9.63964 42.3695 9.63964 42.1007C9.63964 41.53 8.59396 41.4433 8.19583 41.9808ZM37.2805 42.3542C35.7538 43.721 36.585 45.1711 38.4241 44.3499C39.4722 43.8819 39.9085 42.7365 39.2796 42.1044C38.6162 41.4379 38.2531 41.4833 37.2805 42.3542ZM63.1285 42.2281C62.3863 42.9127 62.234 43.6457 62.8344 43.6457C63.0449 43.6457 63.3394 43.48 63.4897 43.2773C63.6396 43.0747 64.1076 42.9842 64.5293 43.076C65.4889 43.2855 65.4933 43.1167 64.5504 42.2722C63.8277 41.6249 63.7846 41.6236 63.1285 42.2281ZM92.3879 41.8313C91.8126 42.3108 92.138 42.9679 92.9505 42.9679C93.5185 42.9679 93.75 42.7839 93.6615 42.403C93.5165 41.7791 92.823 41.468 92.3879 41.8313ZM38.2803 43.2502C38.2803 43.8633 37.4852 43.7515 37.3272 43.1164C37.2399 42.7629 37.3918 42.608 37.7335 42.7029C38.0345 42.7866 38.2803 43.033 38.2803 43.2502ZM65.8045 43.7481C65.2142 44.4414 65.0395 44.923 65.3004 45.1406C65.7781 45.5391 66.9867 44.3652 66.7291 43.7525C66.6361 43.5315 66.7694 43.2926 67.0253 43.2214C67.3032 43.1442 67.3328 43.011 67.0988 42.89C66.8831 42.7792 66.301 43.1652 65.8045 43.7481ZM87.324 44.1734C86.3925 44.7176 86.0906 45.6791 86.8511 45.6791C87.0875 45.6791 87.1676 45.8326 87.0286 46.0203C86.8893 46.2081 87.0473 46.4487 87.3788 46.5548C88.0471 46.7686 89.2565 46.3152 90.2677 45.4717C90.8775 44.963 90.875 44.8718 90.2364 44.2832C89.395 43.5074 88.5196 43.4746 87.324 44.1734ZM33.5267 44.5963C33.3366 45.4195 34.7036 46.4351 35.6604 46.182C36.0959 46.0667 36.4521 45.8048 36.4521 45.5998C36.4521 45.3947 36.3319 45.3276 36.1848 45.4503C35.7875 45.7817 34.8454 45.0172 35.0644 44.5411C35.1692 44.3127 34.8986 44.108 34.4554 44.0798C34 44.0514 33.6015 44.273 33.5267 44.5963ZM67.3925 45.1866C66.7945 46.2816 66.8002 46.3568 67.4868 46.3568C67.798 46.3568 68.1579 46.1281 68.2867 45.8485C68.6779 44.9982 69.397 45.2812 69.2723 46.2365C69.1309 47.3213 69.9942 47.6938 70.3687 46.7096C70.5154 46.3236 70.7973 46.0915 70.9948 46.1935C71.1926 46.2952 71.2442 46.6178 71.1097 46.9102C70.8071 47.5677 71.8475 48.1862 72.2866 47.6097C72.7778 46.9655 72.6575 45.6841 72.1006 45.6275C71.8215 45.5991 71.41 45.5557 71.1865 45.5313C70.9631 45.5069 70.1579 45.2249 69.3974 44.905C68.6369 44.5851 67.9808 44.3235 67.9394 44.3235C67.8979 44.3235 67.6517 44.7119 67.3925 45.1866ZM84.5375 44.8295C84.2332 45.4913 84.8511 47.4474 85.4114 47.5955C85.6315 47.6538 86.0536 47.5735 86.3494 47.4172C86.7926 47.1831 86.782 46.9224 86.2893 45.939C85.5755 44.5136 84.8845 44.0758 84.5375 44.8295ZM17.0334 45.0691C16.1799 45.7811 16.5053 46.6849 17.8662 47.382C19.3397 48.1367 20.4053 48.1313 20.4053 47.3688C20.4053 47.0461 20.0721 46.895 19.4774 46.9479C18.4297 47.0414 17.8146 46.1796 18.5138 45.5964C18.8436 45.3212 19.1658 45.373 19.7179 45.7895C20.6933 46.5259 21.2247 46.0956 20.3431 45.2829C19.579 44.5783 17.7622 44.4611 17.0334 45.0691ZM73.8925 46.2033C73.2539 47.3718 73.2982 48.3902 73.9868 48.3902C74.6705 48.3902 75.0459 47.6599 75.0459 46.329C75.0459 45.1104 74.5206 45.0531 73.8925 46.2033ZM30.4498 46.1437C29.6893 46.4575 29.5711 46.7049 29.7815 47.5423C29.9225 48.1018 30.1853 48.6911 30.3657 48.8521C30.7829 49.2239 31.6694 48.7891 31.3561 48.3661C31.2274 48.1923 31.5901 47.9015 32.1621 47.7202C33.2826 47.3647 33.4951 46.7367 32.7146 46.0857C32.1455 45.6109 31.7141 45.6221 30.4498 46.1437ZM81.749 45.9244C80.5388 46.1725 80.0269 46.6212 80.0781 47.3891C80.1455 48.3983 80.9828 48.6698 82.7886 48.2678C84.5359 47.8788 84.5745 47.8236 83.9935 46.5483C83.5999 45.6852 83.3094 45.6042 81.749 45.9244ZM22.04 46.6313C21.6683 46.9411 21.8109 48.3417 22.2362 48.561C22.4613 48.6772 22.77 48.4956 22.922 48.1574C23.0743 47.8195 23.4676 47.3749 23.7962 47.1692C24.2906 46.8601 24.2086 46.7659 23.3234 46.6246C22.7343 46.5307 22.1566 46.5337 22.04 46.6313ZM31.9834 46.8652C31.9834 47.1448 31.7092 47.3735 31.374 47.3735C31.0389 47.3735 30.7646 47.1448 30.7646 46.8652C30.7646 46.5856 31.0389 46.3568 31.374 46.3568C31.7092 46.3568 31.9834 46.5856 31.9834 46.8652ZM75.9323 47.4376C76.0156 48.1611 76.278 48.5596 76.6709 48.5596C77.0146 48.5596 77.2311 48.3122 77.1677 47.992C77.106 47.6799 77.2433 47.3278 77.4724 47.2095C77.7162 47.0841 77.8896 47.3552 77.8896 47.8618C77.8896 48.5122 78.0993 48.7291 78.7277 48.7291C79.4289 48.7291 79.5451 48.5488 79.4387 47.6277C79.3188 46.5907 79.2087 46.5202 77.5573 46.4209L75.8031 46.3155L75.9323 47.4376ZM25.7613 47.7266C26.3914 48.6166 26.41 48.7996 25.8978 49.0639C25.1064 49.4719 25.6236 49.862 26.6099 49.6007C27.8104 49.2828 28.978 46.6957 27.9209 46.6957C27.6975 46.6957 27.5146 46.9245 27.5146 47.2041C27.5146 47.4836 27.3261 47.7124 27.0958 47.7124C26.8651 47.7124 26.5713 47.4836 26.443 47.2041C26.3142 46.9245 25.9441 46.6957 25.6199 46.6957C25.1369 46.6957 25.162 46.8804 25.7613 47.7266Z" fill="black"/>
</svg>
