<svg width="36" height="36" viewBox="0 0 36 36" fill="none" xmlns="http://www.w3.org/2000/svg">
<path d="M28.983 8.34328C28.7552 8.22554 28.5335 8.09648 28.3186 7.95656C27.6937 7.54345 27.1208 7.05667 26.6121 6.50672C25.3395 5.05055 24.8641 3.57328 24.6891 2.53898H24.6961C24.5498 1.68047 24.6103 1.125 24.6195 1.125H18.8229V23.5392C18.8229 23.8402 18.8229 24.1376 18.8102 24.4315C18.8102 24.468 18.8067 24.5018 18.8046 24.5412C18.8046 24.5573 18.8046 24.5742 18.8011 24.5911V24.6038C18.74 25.408 18.4822 26.1849 18.0504 26.8661C17.6186 27.5473 17.0259 28.1119 16.3247 28.5103C15.5938 28.9261 14.7672 29.1442 13.9263 29.1431C11.2256 29.1431 9.0368 26.9409 9.0368 24.2213C9.0368 21.5016 11.2256 19.2994 13.9263 19.2994C14.4376 19.2989 14.9456 19.3793 15.4317 19.5377L15.4388 13.6357C13.9631 13.4451 12.4641 13.5624 11.036 13.9801C9.60803 14.3979 8.28209 15.107 7.14188 16.0629C6.14278 16.931 5.30284 17.9667 4.65984 19.1236C4.41516 19.5455 3.49195 21.2407 3.38016 23.992C3.30984 25.5537 3.77883 27.1716 4.00242 27.8402V27.8543C4.14305 28.248 4.68797 29.5917 5.57602 30.7245C6.2921 31.6331 7.13814 32.4313 8.08688 33.0933V33.0792L8.10094 33.0933C10.9071 35.0002 14.0184 34.875 14.0184 34.875C14.557 34.8532 16.3613 34.875 18.4102 33.904C20.6827 32.8275 21.9764 31.2237 21.9764 31.2237C22.8029 30.2654 23.4601 29.1733 23.9198 27.9942C24.4444 26.6154 24.6195 24.9616 24.6195 24.3007V12.4095C24.6898 12.4516 25.6263 13.0711 25.6263 13.0711C25.6263 13.0711 26.9756 13.9359 29.0808 14.4991C30.5911 14.8999 32.6259 14.9843 32.6259 14.9843V9.22992C31.913 9.30727 30.4652 9.08227 28.983 8.34328Z" fill="white"/>
</svg>
