<svg width="36" height="36" viewBox="0 0 36 36" fill="none" xmlns="http://www.w3.org/2000/svg">
<path d="M35.4652 7.40549C34.2127 7.96049 32.8673 8.33549 31.4528 8.50499C32.9123 7.63168 34.0042 6.25719 34.5247 4.63799C33.1535 5.45248 31.6528 6.02579 30.0877 6.33299C29.0353 5.20929 27.6413 4.46448 26.1222 4.2142C24.6031 3.96393 23.0439 4.22218 21.6866 4.94887C20.3293 5.67556 19.2499 6.83004 18.616 8.23305C17.982 9.63606 17.8291 11.2091 18.1807 12.708C15.4023 12.5685 12.6842 11.8463 10.2029 10.5884C7.72158 9.33038 5.53251 7.56474 3.77775 5.40599C3.17775 6.44099 2.83275 7.64099 2.83275 8.91899C2.83208 10.0695 3.1154 11.2024 3.65757 12.2171C4.19974 13.2318 4.98399 14.0971 5.94075 14.736C4.83116 14.7007 3.74606 14.4009 2.77575 13.8615V13.9515C2.77564 15.5651 3.3338 17.1291 4.35552 18.378C5.37725 19.6269 6.79961 20.4839 8.38125 20.8035C7.35193 21.0821 6.27276 21.1231 5.22525 20.9235C5.6715 22.3119 6.54074 23.526 7.7113 24.3959C8.88186 25.2657 10.2951 25.7478 11.7533 25.7745C9.278 27.7176 6.22108 28.7716 3.07425 28.767C2.51682 28.7671 1.95986 28.7346 1.40625 28.6695C4.60046 30.7233 8.31876 31.8132 12.1163 31.809C24.9712 31.809 31.9988 21.162 31.9988 11.928C31.9988 11.628 31.9913 11.325 31.9778 11.025C33.3447 10.0365 34.5246 8.81234 35.4622 7.40999L35.4652 7.40549Z" fill="white"/>
</svg>
