<svg width="113" height="75" viewBox="0 0 113 75" fill="#fff" xmlns="http://www.w3.org/2000/svg">
<path d="M109.67 11.7225C109.035 9.46022 107.8 7.41209 106.095 5.79581C104.342 4.12982 102.193 2.93811 99.8509 2.33314C91.0869 0.023141 55.9749 0.0231415 55.9749 0.0231415C41.3371 -0.1434 26.7029 0.589089 12.1549 2.21647C9.8131 2.86614 7.66818 4.08448 5.91088 5.76314C4.18421 7.42447 2.93355 9.47314 2.28021 11.7178C0.710781 20.1726 -0.0517571 28.7574 0.00288019 37.3565C-0.0531198 45.9478 0.707547 54.5298 2.28021 62.9951C2.91955 65.2305 4.16555 67.2698 5.89688 68.9171C7.62821 70.5645 9.78421 71.7545 12.1549 72.3845C21.0355 74.6898 55.9749 74.6898 55.9749 74.6898C70.6313 74.8566 85.2842 74.1241 99.8509 72.4965C102.193 71.8915 104.342 70.6998 106.095 69.0338C107.799 67.4178 109.033 65.3694 109.665 63.1071C111.275 54.6556 112.058 46.0672 112.003 37.4638C112.124 28.824 111.342 20.1951 109.67 11.7178V11.7225ZM44.8122 53.3351V21.3825L74.0255 37.3611L44.8122 53.3351Z" fill="#fff"/>
</svg>
