<svg width="70" height="48" viewBox="0 0 70 48" fill="none" xmlns="http://www.w3.org/2000/svg">
<path d="M68.5435 7.97889C68.1471 6.56498 67.375 5.2849 66.3093 4.27472C65.2135 3.23348 63.8704 2.48866 62.4068 2.11056C56.9293 0.666807 34.9843 0.666807 34.9843 0.666807C25.8357 0.562719 16.6893 1.02052 7.5968 2.03764C6.13319 2.44368 4.79261 3.20514 3.6943 4.25431C2.61513 5.29264 1.83347 6.57306 1.42513 7.97597C0.444238 13.2602 -0.0323482 18.6257 0.00180012 24.0001C-0.0331999 29.3697 0.442217 34.7335 1.42513 40.0243C1.82472 41.4214 2.60347 42.696 3.68555 43.7256C4.76763 44.7551 6.11513 45.4989 7.5968 45.8926C13.1472 47.3335 34.9843 47.3335 34.9843 47.3335C44.1446 47.4377 53.3026 46.9799 62.4068 45.9626C63.8704 45.5845 65.2135 44.8397 66.3093 43.7985C67.3746 42.7885 68.1458 41.5082 68.5406 40.0943C69.5471 34.8121 70.0365 29.4444 70.0018 24.0672C70.0775 18.6673 69.5887 13.2743 68.5435 7.97597V7.97889ZM28.0076 33.9868V14.0164L46.266 24.0031L28.0076 33.9868Z" fill="#F8F8F8"/>
</svg>
